<svg width="22" height="24" viewBox="0 0 22 24" fill="none" xmlns="http://www.w3.org/2000/svg">
<path d="M10.1927 9.58643H7.1665V12.2368H10.1927V9.58643Z" fill="white"/>
<path d="M14.2336 9.58643H11.208V12.2368H14.2336V9.58643Z" fill="white"/>
<path d="M18.2723 9.58643H15.2461V12.2368H18.2723V9.58643Z" fill="white"/>
<path d="M6.15308 13.125H3.12744V15.7734H6.15308V13.125Z" fill="white"/>
<path d="M10.1927 13.125H7.1665V15.7734H10.1927V13.125Z" fill="white"/>
<path d="M14.2336 13.125H11.208V15.7734H14.2336V13.125Z" fill="white"/>
<path d="M18.2723 13.125H15.2461V15.7734H18.2723V13.125Z" fill="white"/>
<path d="M6.15308 16.6626H3.12744V19.3125H6.15308V16.6626Z" fill="white"/>
<path d="M10.1927 16.6626H7.1665V19.3125H10.1927V16.6626Z" fill="white"/>
<path d="M14.2336 16.6626H11.208V19.3125H14.2336V16.6626Z" fill="white"/>
<path d="M18.2723 16.6626H15.2461V19.3125H18.2723V16.6626Z" fill="white"/>
<path d="M19.7536 20.9793C19.7536 21.605 19.2368 22.1139 18.6013 22.1139H2.79843C2.16302 22.1139 1.64614 21.605 1.64614 20.9793V7.94775H0V20.9793C0 22.4984 1.25567 23.7349 2.79843 23.7349H18.6013C20.1448 23.7349 21.3998 22.4984 21.3998 20.9793V7.94775H19.7536V20.9793Z" fill="white"/>
<path d="M18.6013 2.66275H17.8784V1.88602C17.8784 0.902455 17.0902 0.103027 16.1203 0.103027C15.1497 0.103027 14.3622 0.902455 14.3622 1.88602V2.6621H12.558V1.88602C12.558 0.902455 11.7699 0.103027 10.8 0.103027C9.83007 0.103027 9.0419 0.902455 9.0419 1.88602V2.6621H7.23773V1.88602C7.23773 0.902455 6.44956 0.103027 5.47966 0.103027C4.50976 0.103027 3.72159 0.902455 3.72159 1.88602V2.6621H2.79843C1.25567 2.6621 0 3.89853 0 5.41763V6.71436H1.64614H19.7536H21.3998V5.41763C21.3998 3.89918 20.1448 2.66275 18.6013 2.66275ZM6.25005 5.06039C6.25005 5.50711 5.90436 5.87084 5.47966 5.87084C5.05496 5.87084 4.70927 5.50711 4.70927 5.06039V1.88602C4.70927 1.4393 5.05496 1.07557 5.47966 1.07557C5.90436 1.07557 6.25005 1.4393 6.25005 1.88602V5.06039ZM11.5704 5.06039C11.5704 5.50711 11.2247 5.87084 10.8 5.87084C10.3753 5.87084 10.0296 5.50711 10.0296 5.06039V1.88602C10.0296 1.4393 10.3753 1.07557 10.8 1.07557C11.2247 1.07557 11.5704 1.4393 11.5704 1.88602V5.06039ZM16.8907 5.06039C16.8907 5.50711 16.545 5.87084 16.1203 5.87084C15.6949 5.87084 15.3499 5.50711 15.3499 5.06039V1.88602C15.3499 1.4393 15.6949 1.07557 16.1203 1.07557C16.545 1.07557 16.8907 1.4393 16.8907 1.88602V5.06039Z" fill="white"/>
</svg>
