<svg width="88" height="12" viewBox="0 0 88 12" fill="none" xmlns="http://www.w3.org/2000/svg">
<path d="M6 0L7.34708 4.1459H11.7063L8.17963 6.7082L9.52671 10.8541L6 8.2918L2.47329 10.8541L3.82037 6.7082L0.293661 4.1459H4.65292L6 0Z" fill="#6C63FF"/>
<path d="M25 0L26.3471 4.1459H30.7063L27.1796 6.7082L28.5267 10.8541L25 8.2918L21.4733 10.8541L22.8204 6.7082L19.2937 4.1459H23.6529L25 0Z" fill="#6C63FF"/>
<path d="M44 0L45.3471 4.1459H49.7063L46.1796 6.7082L47.5267 10.8541L44 8.2918L40.4733 10.8541L41.8204 6.7082L38.2937 4.1459H42.6529L44 0Z" fill="#6C63FF"/>
<path d="M63 0L64.3471 4.1459H68.7063L65.1796 6.7082L66.5267 10.8541L63 8.2918L59.4733 10.8541L60.8204 6.7082L57.2937 4.1459H61.6529L63 0Z" fill="#6C63FF"/>
<path d="M82 0.809018L83.1093 4.22315L83.1654 4.3959H83.3471H86.9369L84.0327 6.50595L83.8857 6.61271L83.9419 6.78546L85.0512 10.1996L82.1469 8.08954L82 7.98278L81.8531 8.08954L78.9488 10.1996L80.0581 6.78546L80.1143 6.61271L79.9673 6.50595L77.0631 4.3959H80.6529H80.8346L80.8907 4.22315L82 0.809018Z" stroke="#6C63FF" stroke-width="0.5"/>
</svg>
