<svg width="22" height="22" viewBox="0 0 22 22" fill="none" xmlns="http://www.w3.org/2000/svg">
<path d="M17.8572 7.16971C17.3572 7.39293 16.817 7.54471 16.2367 7.62507C16.8438 7.26793 17.259 6.7456 17.4822 6.0581C16.9019 6.39739 16.3036 6.62507 15.6876 6.74114C15.1429 6.15185 14.4599 5.85721 13.6385 5.85721C12.8617 5.85721 12.1987 6.13177 11.6496 6.68087C11.1005 7.22998 10.826 7.89293 10.826 8.66971C10.826 8.92864 10.8483 9.14293 10.8929 9.31257C9.74114 9.25007 8.66078 8.95989 7.65185 8.44203C6.64293 7.92418 5.78578 7.23221 5.08043 6.36614C4.8215 6.81257 4.69203 7.28578 4.69203 7.78578C4.69203 8.80364 5.09828 9.58489 5.91078 10.1295C5.49114 10.1206 5.04471 10.0045 4.5715 9.78132V9.8081C4.5715 10.4777 4.79471 11.0737 5.24114 11.5961C5.68757 12.1184 6.23668 12.442 6.88846 12.567C6.62953 12.6385 6.40185 12.6742 6.20543 12.6742C6.08935 12.6742 5.91525 12.6563 5.6831 12.6206C5.8706 13.1831 6.20319 13.6474 6.68087 14.0135C7.15855 14.3795 7.70096 14.567 8.3081 14.576C7.27239 15.3795 6.10721 15.7813 4.81257 15.7813C4.58043 15.7813 4.35721 15.7679 4.14293 15.7411C5.46435 16.5804 6.90185 17.0001 8.45543 17.0001C9.45543 17.0001 10.3929 16.8416 11.2679 16.5246C12.1429 16.2077 12.8929 15.7836 13.5179 15.2523C14.1429 14.7211 14.6809 14.1094 15.1318 13.4175C15.5827 12.7255 15.9175 12.0023 16.1362 11.2478C16.355 10.4934 16.4644 9.74114 16.4644 8.99114C16.4644 8.83043 16.4599 8.70989 16.451 8.62953C17.0135 8.22775 17.4822 7.74114 17.8572 7.16971ZM21.2858 4.5715V17.4286C21.2858 18.4911 20.9085 19.3996 20.1541 20.1541C19.3996 20.9085 18.4911 21.2858 17.4286 21.2858H4.5715C3.509 21.2858 2.60052 20.9085 1.84605 20.1541C1.09159 19.3996 0.714355 18.4911 0.714355 17.4286V4.5715C0.714355 3.509 1.09159 2.60052 1.84605 1.84605C2.60052 1.09159 3.509 0.714355 4.5715 0.714355H17.4286C18.4911 0.714355 19.3996 1.09159 20.1541 1.84605C20.9085 2.60052 21.2858 3.509 21.2858 4.5715Z" fill="#6C63FF"/>
</svg>
