<svg width="22" height="22" viewBox="0 0 22 22" fill="none" xmlns="http://www.w3.org/2000/svg">
<path d="M20.1474 0.714355C20.4599 0.714355 20.7277 0.825963 20.951 1.04918C21.1742 1.27239 21.2858 1.54025 21.2858 1.85275V20.1474C21.2858 20.4599 21.1742 20.7277 20.951 20.951C20.7277 21.1742 20.4599 21.2858 20.1474 21.2858H14.9108V13.317H17.576L17.9777 10.2099H14.9108V8.22775C14.9108 7.72775 15.0157 7.35275 15.2255 7.10275C15.4353 6.85275 15.8438 6.72775 16.451 6.72775L18.0849 6.71435V3.94203C17.5224 3.86168 16.7277 3.8215 15.701 3.8215C14.4867 3.8215 13.5157 4.17864 12.788 4.89293C12.0603 5.60721 11.6965 6.61614 11.6965 7.91971V10.2099H9.01793V13.317H11.6965V21.2858H1.85275C1.54025 21.2858 1.27239 21.1742 1.04918 20.951C0.825963 20.7277 0.714355 20.4599 0.714355 20.1474V1.85275C0.714355 1.54025 0.825963 1.27239 1.04918 1.04918C1.27239 0.825963 1.54025 0.714355 1.85275 0.714355H20.1474Z" fill="#6C63FF"/>
</svg>
