<svg width="22" height="22" viewBox="0 0 22 22" fill="none" xmlns="http://www.w3.org/2000/svg">
<path d="M14.4286 11.0001C14.4286 10.0536 14.0938 9.2456 13.4242 8.57596C12.7545 7.90632 11.9465 7.5715 11.0001 7.5715C10.0536 7.5715 9.2456 7.90632 8.57596 8.57596C7.90632 9.2456 7.5715 10.0536 7.5715 11.0001C7.5715 11.9465 7.90632 12.7545 8.57596 13.4242C9.2456 14.0938 10.0536 14.4286 11.0001 14.4286C11.9465 14.4286 12.7545 14.0938 13.4242 13.4242C14.0938 12.7545 14.4286 11.9465 14.4286 11.0001ZM16.2769 11.0001C16.2769 12.4644 15.7635 13.7099 14.7367 14.7367C13.7099 15.7635 12.4644 16.2769 11.0001 16.2769C9.53578 16.2769 8.29025 15.7635 7.26346 14.7367C6.23668 13.7099 5.72328 12.4644 5.72328 11.0001C5.72328 9.53578 6.23668 8.29025 7.26346 7.26346C8.29025 6.23668 9.53578 5.72328 11.0001 5.72328C12.4644 5.72328 13.7099 6.23668 14.7367 7.26346C15.7635 8.29025 16.2769 9.53578 16.2769 11.0001ZM17.7233 5.509C17.7233 5.84828 17.6027 6.13846 17.3617 6.37953C17.1206 6.6206 16.8304 6.74114 16.4911 6.74114C16.1519 6.74114 15.8617 6.6206 15.6206 6.37953C15.3795 6.13846 15.259 5.84828 15.259 5.509C15.259 5.16971 15.3795 4.87953 15.6206 4.63846C15.8617 4.39739 16.1519 4.27685 16.4911 4.27685C16.8304 4.27685 17.1206 4.39739 17.3617 4.63846C17.6027 4.87953 17.7233 5.16971 17.7233 5.509ZM11.0001 2.56257C10.9376 2.56257 10.5961 2.56034 9.97552 2.55587C9.35498 2.55141 8.884 2.55141 8.56257 2.55587C8.24114 2.56034 7.81034 2.57373 7.27016 2.59605C6.72998 2.61837 6.27016 2.66302 5.89069 2.72998C5.51123 2.79694 5.19203 2.87953 4.9331 2.97775C4.48668 3.15632 4.09382 3.41525 3.75453 3.75453C3.41525 4.09382 3.15632 4.48668 2.97775 4.9331C2.87953 5.19203 2.79694 5.51123 2.72998 5.89069C2.66302 6.27016 2.61837 6.72998 2.59605 7.27016C2.57373 7.81034 2.56034 8.24114 2.55587 8.56257C2.55141 8.884 2.55141 9.35498 2.55587 9.97552C2.56034 10.5961 2.56257 10.9376 2.56257 11.0001C2.56257 11.0626 2.56034 11.4041 2.55587 12.0246C2.55141 12.6452 2.55141 13.1161 2.55587 13.4376C2.56034 13.759 2.57373 14.1898 2.59605 14.73C2.61837 15.2702 2.66302 15.73 2.72998 16.1094C2.79694 16.4889 2.87953 16.8081 2.97775 17.067C3.15632 17.5135 3.41525 17.9063 3.75453 18.2456C4.09382 18.5849 4.48668 18.8438 4.9331 19.0224C5.19203 19.1206 5.51123 19.2032 5.89069 19.2702C6.27016 19.3371 6.72998 19.3818 7.27016 19.4041C7.81034 19.4264 8.24114 19.4398 8.56257 19.4443C8.884 19.4487 9.35498 19.4487 9.97552 19.4443C10.5961 19.4398 10.9376 19.4376 11.0001 19.4376C11.0626 19.4376 11.4041 19.4398 12.0246 19.4443C12.6452 19.4487 13.1161 19.4487 13.4376 19.4443C13.759 19.4398 14.1898 19.4264 14.73 19.4041C15.2702 19.3818 15.73 19.3371 16.1094 19.2702C16.4889 19.2032 16.8081 19.1206 17.067 19.0224C17.5135 18.8438 17.9063 18.5849 18.2456 18.2456C18.5849 17.9063 18.8438 17.5135 19.0224 17.067C19.1206 16.8081 19.2032 16.4889 19.2702 16.1094C19.3371 15.73 19.3818 15.2702 19.4041 14.73C19.4264 14.1898 19.4398 13.759 19.4443 13.4376C19.4487 13.1161 19.4487 12.6452 19.4443 12.0246C19.4398 11.4041 19.4376 11.0626 19.4376 11.0001C19.4376 10.9376 19.4398 10.5961 19.4443 9.97552C19.4487 9.35498 19.4487 8.884 19.4443 8.56257C19.4398 8.24114 19.4264 7.81034 19.4041 7.27016C19.3818 6.72998 19.3371 6.27016 19.2702 5.89069C19.2032 5.51123 19.1206 5.19203 19.0224 4.9331C18.8438 4.48668 18.5849 4.09382 18.2456 3.75453C17.9063 3.41525 17.5135 3.15632 17.067 2.97775C16.8081 2.87953 16.4889 2.79694 16.1094 2.72998C15.73 2.66302 15.2702 2.61837 14.73 2.59605C14.1898 2.57373 13.759 2.56034 13.4376 2.55587C13.1161 2.55141 12.6452 2.55141 12.0246 2.55587C11.4041 2.56034 11.0626 2.56257 11.0001 2.56257ZM21.2858 11.0001C21.2858 13.0447 21.2635 14.4599 21.2188 15.2456C21.1295 17.1027 20.576 18.5402 19.5581 19.5581C18.5402 20.576 17.1027 21.1295 15.2456 21.2188C14.4599 21.2635 13.0447 21.2858 11.0001 21.2858C8.95543 21.2858 7.54025 21.2635 6.75453 21.2188C4.89739 21.1295 3.45989 20.576 2.44203 19.5581C1.42418 18.5402 0.870605 17.1027 0.78132 15.2456C0.736677 14.4599 0.714355 13.0447 0.714355 11.0001C0.714355 8.95543 0.736677 7.54025 0.78132 6.75453C0.870605 4.89739 1.42418 3.45989 2.44203 2.44203C3.45989 1.42418 4.89739 0.870605 6.75453 0.78132C7.54025 0.736677 8.95543 0.714355 11.0001 0.714355C13.0447 0.714355 14.4599 0.736677 15.2456 0.78132C17.1027 0.870605 18.5402 1.42418 19.5581 2.44203C20.576 3.45989 21.1295 4.89739 21.2188 6.75453C21.2635 7.54025 21.2858 8.95543 21.2858 11.0001Z" fill="#6C63FF"/>
</svg>
