<svg width="162" height="48" viewBox="0 0 162 48" fill="none" xmlns="http://www.w3.org/2000/svg">
<path d="M80.7285 12.4062V38H75.4727V12.4062H80.7285ZM88.6035 12.4062V16.5371H67.7207V12.4062H88.6035ZM87.4258 28.6836V28.3145C87.4258 26.9199 87.625 25.6367 88.0234 24.4648C88.4219 23.2812 89.002 22.2559 89.7637 21.3887C90.5254 20.5215 91.4629 19.8477 92.5762 19.3672C93.6895 18.875 94.9668 18.6289 96.4082 18.6289C97.8496 18.6289 99.1328 18.875 100.258 19.3672C101.383 19.8477 102.326 20.5215 103.088 21.3887C103.861 22.2559 104.447 23.2812 104.846 24.4648C105.244 25.6367 105.443 26.9199 105.443 28.3145V28.6836C105.443 30.0664 105.244 31.3496 104.846 32.5332C104.447 33.7051 103.861 34.7305 103.088 35.6094C102.326 36.4766 101.389 37.1504 100.275 37.6309C99.1621 38.1113 97.8848 38.3516 96.4434 38.3516C95.002 38.3516 93.7188 38.1113 92.5938 37.6309C91.4805 37.1504 90.5371 36.4766 89.7637 35.6094C89.002 34.7305 88.4219 33.7051 88.0234 32.5332C87.625 31.3496 87.4258 30.0664 87.4258 28.6836ZM92.4883 28.3145V28.6836C92.4883 29.4805 92.5586 30.2246 92.6992 30.916C92.8398 31.6074 93.0625 32.2168 93.3672 32.7441C93.6836 33.2598 94.0938 33.6641 94.5977 33.957C95.1016 34.25 95.7168 34.3965 96.4434 34.3965C97.1465 34.3965 97.75 34.25 98.2539 33.957C98.7578 33.6641 99.1621 33.2598 99.4668 32.7441C99.7715 32.2168 99.9941 31.6074 100.135 30.916C100.287 30.2246 100.363 29.4805 100.363 28.6836V28.3145C100.363 27.541 100.287 26.8145 100.135 26.1348C99.9941 25.4434 99.7656 24.834 99.4492 24.3066C99.1445 23.7676 98.7402 23.3457 98.2363 23.041C97.7324 22.7363 97.123 22.584 96.4082 22.584C95.6934 22.584 95.084 22.7363 94.5801 23.041C94.0879 23.3457 93.6836 23.7676 93.3672 24.3066C93.0625 24.834 92.8398 25.4434 92.6992 26.1348C92.5586 26.8145 92.4883 27.541 92.4883 28.3145ZM119.805 33.4473V18.9805H124.867V38H120.104L119.805 33.4473ZM120.367 29.5449L121.861 29.5098C121.861 30.7754 121.715 31.9531 121.422 33.043C121.129 34.1211 120.689 35.0586 120.104 35.8555C119.518 36.6406 118.779 37.2559 117.889 37.7012C116.998 38.1348 115.949 38.3516 114.742 38.3516C113.816 38.3516 112.961 38.2227 112.176 37.9648C111.402 37.6953 110.734 37.2793 110.172 36.7168C109.621 36.1426 109.188 35.4102 108.871 34.5195C108.566 33.6172 108.414 32.5332 108.414 31.2676V18.9805H113.477V31.3027C113.477 31.8652 113.541 32.3398 113.67 32.7266C113.811 33.1133 114.004 33.4297 114.25 33.6758C114.496 33.9219 114.783 34.0977 115.111 34.2031C115.451 34.3086 115.826 34.3613 116.236 34.3613C117.279 34.3613 118.1 34.1504 118.697 33.7285C119.307 33.3066 119.734 32.7324 119.98 32.0059C120.238 31.2676 120.367 30.4473 120.367 29.5449ZM133.797 23.1289V38H128.734V18.9805H133.498L133.797 23.1289ZM139.527 18.8574L139.439 23.5508C139.193 23.5156 138.895 23.4863 138.543 23.4629C138.203 23.4277 137.893 23.4102 137.611 23.4102C136.896 23.4102 136.275 23.5039 135.748 23.6914C135.232 23.8672 134.799 24.1309 134.447 24.4824C134.107 24.834 133.85 25.2617 133.674 25.7656C133.51 26.2695 133.416 26.8438 133.393 27.4883L132.373 27.1719C132.373 25.9414 132.496 24.8105 132.742 23.7793C132.988 22.7363 133.346 21.8281 133.814 21.0547C134.295 20.2812 134.881 19.6836 135.572 19.2617C136.264 18.8398 137.055 18.6289 137.945 18.6289C138.227 18.6289 138.514 18.6523 138.807 18.6992C139.1 18.7344 139.34 18.7871 139.527 18.8574ZM157.053 34.0449V38H142.604V34.0449H157.053ZM156.771 21.8984L144.643 38H141.25V34.9941L153.326 18.9805H156.771V21.8984ZM154.979 18.9805V22.9531H141.531V18.9805H154.979Z" fill="#6C63FF"/>
<path d="M49.9045 28.446C49.3373 28.7052 48.3412 28.9184 47.1883 29.0898C44.0535 29.5565 39.7577 29.7221 39.7577 29.7221C39.7577 29.7221 17.6745 31.9943 1.12348 23.5436C1.12348 23.5436 -1.28391 21.9779 0.949324 19.8707C1.29321 19.5558 1.6588 19.2791 2.04185 19.0439L2.06913 19.01C2.32315 18.7188 2.59767 18.4563 2.8894 18.2257C3.74681 17.538 5.19461 16.7227 6.95705 17.0922L50.427 25.8144C50.427 25.8144 52.0147 27.4787 49.9045 28.446Z" fill="#3F3D56"/>
<path d="M41 24.5827L50.0232 16L54 16.9222L50.106 25.9988C50.106 25.9988 41.1036 26.0952 41 24.5827Z" fill="#3F3D56"/>
<path d="M18 19.3925L36.085 13L39 13.7679L30.8306 18.3997L28.2776 22L18 19.3925Z" fill="#3F3D56"/>
<path d="M47 29.1014C43.8777 29.5621 39.5991 29.7257 39.5991 29.7257C39.5991 29.7257 17.6039 31.9689 1.119 23.6261C1.119 23.6261 -1.27878 22.0804 0.945536 20L0.953053 20.0384C0.953053 20.0384 4.51011 22.9947 21.5056 25.4626L47 29.1014Z" fill="#6C63FF"/>
<path d="M44.0384 29.1435L51.9999 33L54 32.7368L49.2379 28.4906C49.2379 28.4906 43.4778 27.0326 44.0384 29.1435Z" fill="#3F3D56"/>
<path d="M41 42.6736L35.7678 43L21.0571 31.174L18.3263 28.9782L17 27.9113C19.4886 25.4058 29.6418 28.8613 29.6418 28.8613C29.8362 29.0569 29.8981 29.3819 29.8894 29.741C29.8724 30.4133 29.6074 31.2025 29.5052 31.4865C29.4807 31.5561 29.4655 31.593 29.4655 31.593L41 42.6736Z" fill="#3F3D56"/>
<path d="M23.7653 36.6166L22.8583 37.3712L23.4078 36.0575C23.2522 35.8943 23.0596 35.8039 22.8606 35.8006H22.846C22.7831 35.8022 22.7202 35.7961 22.6582 35.7822L22.3514 36.0383L22.4826 35.7239C22.2652 35.6236 22.0775 35.4358 21.946 35.1871L21.3971 35.6472L21.7435 34.8175C21.4227 34.3106 20.9899 34 20.5133 34C19.9423 34 19.4336 34.4463 19.1052 35.1426C19.0078 35.3512 18.8701 35.522 18.7062 35.6379C18.5423 35.7537 18.3579 35.8104 18.1719 35.8021H18.1416C17.511 35.8021 17 36.7416 17 37.9011C17 39.0606 17.511 40 18.1416 40C18.2801 39.9994 18.4165 39.9544 18.5388 39.8689C18.7535 39.7319 18.9882 39.6579 19.2268 39.6518C19.4654 39.6457 19.7021 39.7077 19.9207 39.8336C20.1055 39.942 20.3057 39.9981 20.5081 39.9981C20.7105 39.9981 20.9106 39.942 21.0955 39.8336C21.3122 39.7101 21.5467 39.6492 21.7829 39.6552C22.0191 39.6612 22.2515 39.7338 22.4645 39.8681C22.5861 39.9515 22.7211 39.9954 22.8583 39.9962C23.4888 39.9962 23.9998 39.0567 23.9998 37.8972C24.0044 37.4513 23.9237 37.011 23.7653 36.6166Z" fill="#F2F2F2"/>
<path opacity="0.03" d="M22 39.7184C21.6742 39.6429 21.3374 39.6877 21.0324 39.8468C20.8498 39.9469 20.6519 39.9986 20.4517 39.9986C20.2516 39.9986 20.0537 39.9469 19.871 39.8468C19.6549 39.7306 19.4207 39.6734 19.1847 39.679C18.9486 39.6846 18.7164 39.7529 18.5042 39.8793C18.3829 39.9578 18.2479 39.9992 18.1107 40C17.5568 40 17.0958 39.3167 17 38.416C17.1108 38.3175 17.2049 38.1936 17.2769 38.0511C17.6018 37.4108 18.1049 37 18.6697 37C19.2346 37 19.7325 37.4024 20.0568 38.0376C20.1535 38.2291 20.2891 38.3868 20.4504 38.4952C20.6116 38.6037 20.793 38.6593 20.977 38.6567H20.9915C21.4323 38.6553 21.8142 39.0873 22 39.7184Z" fill="black"/>
<path d="M48.7653 35.6166L47.8583 36.3712L48.4077 35.0575C48.2522 34.8943 48.0596 34.8039 47.8606 34.8006H47.846C47.7831 34.8022 47.7202 34.7961 47.6582 34.7822L47.3514 35.0383L47.4826 34.7239C47.2652 34.6236 47.0775 34.4358 46.946 34.1871L46.3971 34.6472L46.7435 33.8175C46.4227 33.3106 45.9899 33 45.5133 33C44.9423 33 44.4336 33.4463 44.1052 34.1426C44.0078 34.3512 43.8701 34.522 43.7062 34.6379C43.5423 34.7537 43.3579 34.8104 43.1719 34.8021H43.1416C42.511 34.8021 42 35.7416 42 36.9011C42 38.0606 42.511 39 43.1416 39C43.2801 38.9994 43.4165 38.9544 43.5388 38.8689C43.7535 38.7319 43.9882 38.6579 44.2268 38.6518C44.4654 38.6457 44.7021 38.7077 44.9207 38.8336C45.1055 38.942 45.3057 38.9981 45.5081 38.9981C45.7105 38.9981 45.9106 38.942 46.0955 38.8336C46.3122 38.7101 46.5467 38.6492 46.7829 38.6552C47.0191 38.6612 47.2515 38.7338 47.4645 38.8681C47.5861 38.9515 47.7211 38.9954 47.8583 38.9962C48.4888 38.9962 48.9998 38.0567 48.9998 36.8972C49.0044 36.4513 48.9237 36.011 48.7653 35.6166V35.6166Z" fill="#F2F2F2"/>
<path opacity="0.03" d="M47 38.7184C46.6742 38.6429 46.3374 38.6877 46.0324 38.8468C45.8498 38.9469 45.6519 38.9986 45.4517 38.9986C45.2516 38.9986 45.0537 38.9469 44.871 38.8468C44.6549 38.7306 44.4207 38.6734 44.1846 38.679C43.9486 38.6846 43.7164 38.7529 43.5042 38.8793C43.3829 38.9578 43.2479 38.9992 43.1107 39C42.5568 39 42.0958 38.3167 42 37.416C42.1108 37.3175 42.2049 37.1936 42.2769 37.0511C42.6018 36.4108 43.1049 36 43.6697 36C44.2346 36 44.7325 36.4024 45.0568 37.0376C45.1538 37.2296 45.2898 37.3876 45.4516 37.4961C45.6134 37.6046 45.7954 37.6599 45.9799 37.6567H45.9943C46.4323 37.6553 46.8142 38.0873 47 38.7184Z" fill="black"/>
<path d="M48.7653 12.1805L47.8582 12.8093L48.4077 11.7146C48.2521 11.5786 48.0596 11.5033 47.8606 11.5005H47.846C47.7831 11.5019 47.7202 11.4967 47.6582 11.4852L47.3513 11.6986L47.4826 11.4366C47.2652 11.353 47.0774 11.1965 46.9459 10.9893L46.397 11.3727L46.7435 10.6812C46.4227 10.2588 45.9899 10 45.5133 10C44.9422 10 44.4336 10.3719 44.1052 10.9522C44.0078 11.126 43.8701 11.2684 43.7062 11.3649C43.5422 11.4614 43.3579 11.5087 43.1719 11.5018H43.1415C42.511 11.5018 42 12.2846 42 13.2509C42 14.2171 42.511 15 43.1415 15C43.2801 14.9995 43.4165 14.962 43.5388 14.8907C43.7535 14.7766 43.9882 14.7149 44.2268 14.7098C44.4653 14.7047 44.7021 14.7564 44.9207 14.8613C45.1053 14.9522 45.3053 14.9994 45.5077 15C45.7102 15.0005 45.9104 14.9544 46.0955 14.8645C46.3122 14.7616 46.5466 14.7109 46.7828 14.7159C47.019 14.7208 47.2515 14.7813 47.4645 14.8933C47.5861 14.9628 47.7211 14.9994 47.8582 15C48.4888 15 48.9998 14.2171 48.9998 13.2509C49.0048 12.8782 48.9242 12.5101 48.7653 12.1805V12.1805Z" fill="#F2F2F2"/>
<path opacity="0.03" d="M47 14.7184C46.6742 14.6429 46.3374 14.6877 46.0324 14.8468C45.8498 14.9469 45.6519 14.9986 45.4517 14.9986C45.2516 14.9986 45.0537 14.9469 44.871 14.8468C44.6549 14.7306 44.4207 14.6734 44.1846 14.679C43.9486 14.6846 43.7164 14.7529 43.5042 14.8793C43.3829 14.9578 43.2479 14.9992 43.1107 15C42.5568 15 42.0958 14.3167 42 13.416C42.1108 13.3175 42.2049 13.1936 42.2769 13.0511C42.6018 12.4108 43.1049 12 43.6697 12C44.2346 12 44.7325 12.4024 45.0568 13.0376C45.1538 13.2296 45.2898 13.3876 45.4516 13.4961C45.6134 13.6046 45.7954 13.6599 45.9799 13.6567H45.9943C46.4323 13.6553 46.8142 14.0873 47 14.7184Z" fill="black"/>
<path d="M51.8641 44.3044L51.3458 44.6818L51.6602 44.0254C51.5713 43.9433 51.4611 43.8978 51.3472 43.8962H51.3392C51.3031 43.8967 51.2671 43.8936 51.2315 43.887L51.0563 44.0146L51.1312 43.8609C51.0068 43.8108 50.8994 43.7169 50.8242 43.5926L50.5106 43.8232L50.7112 43.4089C50.6278 43.2849 50.5213 43.1839 50.3996 43.1131C50.2779 43.0424 50.144 43.0037 50.0076 43C49.6813 43 49.3904 43.2229 49.2051 43.5711C49.1494 43.6756 49.0704 43.7612 48.9764 43.8192C48.8824 43.8771 48.7767 43.9053 48.6701 43.9008H48.6527C48.2923 43.9008 48 44.3713 48 44.9508C48 45.5304 48.2923 46 48.6527 46C48.732 45.9997 48.81 45.9773 48.8801 45.9347C49.0029 45.866 49.1371 45.8288 49.2736 45.8258C49.4101 45.8227 49.5456 45.8538 49.6706 45.917C49.7758 45.9708 49.8898 45.9986 50.005 45.9986C50.1202 45.9986 50.2341 45.9708 50.3393 45.917C50.4633 45.8552 50.5975 45.8247 50.7326 45.8278C50.8677 45.8308 51.0007 45.8673 51.1225 45.9347C51.192 45.976 51.269 45.9979 51.3472 45.9985C51.7076 45.9985 51.9999 45.5288 51.9999 44.9493C52.0024 44.7246 51.9558 44.5028 51.8641 44.3044V44.3044Z" fill="#F2F2F2"/>
<path opacity="0.03" d="M51 45.9071C50.8045 45.8816 50.6022 45.8966 50.4193 45.95C50.31 45.9828 50.1919 45.9998 50.0724 46C49.9516 46 49.8321 45.9824 49.722 45.9486C49.5923 45.91 49.4517 45.891 49.3101 45.893C49.1686 45.8949 49.0293 45.9178 48.9019 45.9599C48.8295 45.9861 48.7488 45.9998 48.6667 46C48.3344 46 48.0576 45.7722 48 45.4722C48.0663 45.4391 48.1228 45.3978 48.1665 45.3505C48.3608 45.1368 48.6626 45 48.9991 45C49.3356 45 49.636 45.1354 49.8316 45.3462C49.8899 45.4103 49.9718 45.4631 50.0691 45.4992C50.1664 45.5353 50.2758 45.5536 50.3867 45.5524H50.3957C50.6573 45.5524 50.8883 45.6967 51 45.9071Z" fill="black"/>
<path d="M30.7653 2.61656L29.8582 3.37116L30.4077 2.05751C30.2521 1.89431 30.0596 1.80391 29.8606 1.80061H29.846C29.7831 1.80223 29.7202 1.79607 29.6582 1.78221L29.3513 2.03834L29.4826 1.72392C29.2652 1.62362 29.0774 1.43578 28.9459 1.18712L28.397 1.64724L28.7435 0.817484C28.4227 0.310583 27.9899 0 27.5133 0C26.9422 0 26.4336 0.446318 26.1052 1.14264C26.0078 1.35116 25.8701 1.52203 25.7062 1.63788C25.5422 1.75373 25.3579 1.8104 25.1719 1.80215H25.1415C24.511 1.80215 24 2.74156 24 3.90107C24 5.06058 24.511 5.99999 25.1415 5.99999C25.2801 5.99942 25.4165 5.9544 25.5388 5.86886C25.7535 5.73193 25.9882 5.65787 26.2268 5.65178C26.4653 5.64569 26.7021 5.70772 26.9207 5.83358C27.1053 5.94263 27.3053 5.99933 27.5077 5.99999C27.7102 6.00065 27.9104 5.94526 28.0955 5.83742C28.3122 5.71391 28.5466 5.65307 28.7828 5.65903C29.019 5.66498 29.2515 5.73759 29.4645 5.87193C29.5861 5.95534 29.7211 5.99926 29.8582 5.99999C30.4888 5.99999 30.9998 5.06058 30.9998 3.90107C31.0048 3.45382 30.9242 3.0121 30.7653 2.61656V2.61656Z" fill="#F2F2F2"/>
<path opacity="0.03" d="M29 5.71835C28.6742 5.64293 28.3374 5.68765 28.0324 5.84682C27.8498 5.94689 27.6519 5.99862 27.4517 5.99862C27.2516 5.99862 27.0537 5.94689 26.871 5.84682C26.6549 5.73064 26.4207 5.67337 26.1846 5.67898C25.9486 5.68459 25.7164 5.75294 25.5042 5.87929C25.3829 5.9578 25.2479 5.99922 25.1107 6C24.5568 6 24.0958 5.31671 24 4.416C24.1108 4.31753 24.2049 4.19357 24.2769 4.05106C24.6018 3.41082 25.1049 3 25.6697 3C26.2346 3 26.7325 3.40235 27.0568 4.03765C27.1538 4.22965 27.2898 4.3876 27.4516 4.4961C27.6134 4.60459 27.7954 4.65993 27.9799 4.65671H27.9943C28.4323 4.65529 28.8142 5.08729 29 5.71835Z" fill="black"/>
<path d="M61.8641 14.3044L61.3458 14.6818L61.6602 14.0254C61.5713 13.9433 61.4611 13.8978 61.3472 13.8962H61.3392C61.3031 13.8967 61.2671 13.8936 61.2315 13.887L61.0563 14.0146L61.1312 13.8609C61.0068 13.8108 60.8994 13.7169 60.8242 13.5926L60.5106 13.8232L60.7112 13.4089C60.6278 13.2849 60.5213 13.1838 60.3996 13.1131C60.2779 13.0424 60.144 13.0037 60.0076 13C59.6813 13 59.3904 13.2229 59.2051 13.5711C59.1494 13.6756 59.0704 13.7612 58.9764 13.8192C58.8824 13.8771 58.7767 13.9053 58.6701 13.9008H58.6527C58.2923 13.9008 58 14.3713 58 14.9508C58 15.5304 58.2923 16 58.6527 16C58.732 15.9997 58.81 15.9773 58.8801 15.9347C59.0029 15.866 59.1371 15.8288 59.2736 15.8258C59.4101 15.8227 59.5456 15.8538 59.6706 15.917C59.7758 15.9708 59.8898 15.9986 60.005 15.9986C60.1202 15.9986 60.2341 15.9708 60.3393 15.917C60.4633 15.8552 60.5975 15.8247 60.7326 15.8278C60.8677 15.8308 61.0007 15.8673 61.1225 15.9347C61.192 15.976 61.269 15.9979 61.3472 15.9985C61.7076 15.9985 61.9999 15.5288 61.9999 14.9493C62.0024 14.7246 61.9558 14.5028 61.8641 14.3044V14.3044Z" fill="#F2F2F2"/>
<path opacity="0.03" d="M61 15.9071C60.8042 15.8816 60.6017 15.8966 60.4186 15.95C60.3092 15.9828 60.1909 15.9998 60.0713 16C59.9515 15.9996 59.8332 15.9821 59.724 15.9486C59.5941 15.91 59.4534 15.891 59.3117 15.893C59.1699 15.8949 59.0305 15.9178 58.903 15.9599C58.8305 15.9861 58.7496 15.9998 58.6675 16C58.3348 16 58.0577 15.7722 58 15.4722C58.0664 15.4391 58.1229 15.3978 58.1667 15.3505C58.3612 15.1368 58.6634 15 59.0002 15C59.3371 15 59.6379 15.1354 59.8338 15.3462C59.8918 15.41 59.9732 15.4625 60.0699 15.4986C60.1667 15.5347 60.2756 15.5532 60.386 15.5524H60.395C60.6569 15.5524 60.8882 15.6967 61 15.9071Z" fill="black"/>
</svg>
