<svg width="556" height="689" viewBox="0 0 556 689" fill="none" xmlns="http://www.w3.org/2000/svg">
<path d="M219.5 69C242.42 69 261 55.1208 261 38C261 20.8792 242.42 7 219.5 7C196.58 7 178 20.8792 178 38C178 55.1208 196.58 69 219.5 69Z" fill="#3F3D56"/>
<path d="M302 200C335.137 200 362 174.48 362 143C362 111.52 335.137 86 302 86C268.863 86 242 111.52 242 143C242 174.48 268.863 200 302 200Z" fill="#3F3D56"/>
<path d="M491.5 664C499.508 664 506 657.732 506 650C506 642.268 499.508 636 491.5 636C483.492 636 477 642.268 477 650C477 657.732 483.492 664 491.5 664Z" fill="#3F3D56"/>
<path d="M413.5 664C421.508 664 428 657.732 428 650C428 642.268 421.508 636 413.5 636C405.492 636 399 642.268 399 650C399 657.732 405.492 664 413.5 664Z" fill="#3F3D56"/>
<path d="M437 305H430V481H437V305Z" fill="#3F3D56"/>
<path d="M472 305H466V481H472V305Z" fill="#3F3D56"/>
<path d="M431.663 310L430 305.315C430 305.315 448.265 285.009 474 301.378L472.337 308.415H465.694C465.694 308.415 454.908 299.901 436.643 309.626L431.663 310Z" fill="#3F3D56"/>
<path d="M320 280H261V353H320V280Z" fill="#FBBEBE"/>
<path d="M362 260H343V295H362V260Z" fill="#FBBEBE"/>
<path d="M268.101 635.598L260.493 657.132C260.493 657.132 257.104 673.079 268.101 673.873C279.098 674.667 296.873 671.481 296.873 671.481C296.873 671.481 299.409 664.307 296.873 657.926C294.337 651.545 286.728 634 286.728 634L268.101 635.598Z" fill="#3C354C"/>
<path d="M324.937 636C324.937 636 313.418 664.311 322.47 669.162C331.521 674.013 343.87 669.967 353.74 674.013C363.611 678.059 390.765 668.357 390.765 668.357C390.765 668.357 394.062 659.46 375.959 657.035C375.959 657.035 356.26 642.471 356.26 639.241C356.26 636.01 344.74 636 344.74 636H324.937Z" fill="#3C354C"/>
<path d="M322.119 319.551C322.119 319.551 254.26 333.046 245.99 329.074C237.72 325.103 229.44 383.096 229.44 383.096C229.44 383.096 226.123 418.029 237.71 464.868C249.296 511.706 237.71 534.735 237.71 534.735C237.71 534.735 239.368 579.192 251.788 599.841C264.209 620.489 264.198 639.536 264.198 639.536C264.198 639.536 288.184 641.917 289.029 636.355C289.029 636.355 279.091 614.126 280.749 593.488C282.407 572.85 275.785 533.144 275.785 533.144C275.785 533.144 286.547 483.125 284.889 464.117C283.231 445.11 290.687 404.574 294.817 411.717C298.947 418.86 309.72 453.793 309.72 460.946C309.72 468.099 313.891 515.717 316.342 518.899C318.793 522.08 317.99 531.604 317.166 536.366C316.342 541.127 316.342 576.852 320.472 595.909C324.601 614.966 321.306 636.395 322.13 639.576C322.954 642.757 346.961 640.366 347.785 634.804C347.785 634.804 351.101 600.671 352.759 595.909C354.417 591.147 355.199 530.723 355.199 530.723C355.199 530.723 356.847 483.885 358.505 479.123C360.163 474.361 362.677 371.941 351.883 360.076C341.089 348.212 345.261 318 345.261 318L322.119 319.551Z" fill="#3F3D56"/>
<path d="M266.857 181.451C263.807 186.983 260.737 192.565 258.829 198.567C256.921 204.568 256.257 211.069 258.051 217.1C259.335 220.868 261.12 224.459 263.361 227.785C265.144 230.964 267.406 233.871 270.072 236.413C276.295 241.885 285.339 242.983 293.74 243.842C295.181 244.074 296.653 244.05 298.085 243.772C299.234 243.451 300.296 242.892 301.197 242.135C304.879 239.139 306.548 234.565 307.897 230.152C311.104 219.655 313.4 208.92 314.763 198.057C315.079 196.34 315.079 194.582 314.763 192.865C314.037 189.869 311.548 187.542 309.743 184.966C307.581 181.887 306.347 178.293 306.175 174.581C306.103 172.773 306.175 170.776 304.993 169.398C304.206 168.648 303.252 168.081 302.203 167.74C297.297 165.743 292.402 163.746 287.486 161.829C284.519 160.65 279.188 157.515 276.077 159.832C273.411 161.829 274.697 166.462 273.557 169.238C271.804 173.452 269.055 177.457 266.857 181.451Z" fill="#FBBEBE"/>
<path opacity="0.1" d="M266.857 181.451C263.807 186.983 260.737 192.565 258.829 198.567C256.921 204.568 256.257 211.069 258.051 217.1C259.335 220.868 261.12 224.459 263.361 227.785C265.144 230.964 267.406 233.871 270.072 236.413C276.295 241.885 285.339 242.983 293.74 243.842C295.181 244.074 296.653 244.05 298.085 243.772C299.234 243.451 300.296 242.892 301.197 242.135C304.879 239.139 306.548 234.565 307.897 230.152C311.104 219.655 313.4 208.92 314.763 198.057C315.079 196.34 315.079 194.582 314.763 192.865C314.037 189.869 311.548 187.542 309.743 184.966C307.581 181.887 306.347 178.293 306.175 174.581C306.103 172.773 306.175 170.776 304.993 169.398C304.206 168.648 303.252 168.081 302.203 167.74C297.297 165.743 292.402 163.746 287.486 161.829C284.519 160.65 279.188 157.515 276.077 159.832C273.411 161.829 274.697 166.462 273.557 169.238C271.804 173.452 269.055 177.457 266.857 181.451Z" fill="black"/>
<path d="M299 183C315.016 183 328 170.688 328 155.5C328 140.312 315.016 128 299 128C282.984 128 270 140.312 270 155.5C270 170.688 282.984 183 299 183Z" fill="#FBBEBE"/>
<path d="M309.624 225.256C304.107 227.155 298.412 228.793 292.549 228.993C288.157 229.036 283.774 228.587 279.491 227.657C270.64 225.971 261.947 223.595 253.5 220.553C251.696 223.959 251.213 227.848 251.056 231.666C250.605 243.211 253.007 254.666 253.93 266.191C255.094 280.841 253.93 295.812 257.863 310C258.09 307.589 259.07 305.299 260.674 303.429C262.011 302.048 263.609 300.923 265.383 300.113C273.321 296.182 282.463 295.092 291.164 297.038C296.209 298.184 301.569 300.324 306.352 298.405C309.205 297.249 311.271 294.818 312.855 292.265C315.544 287.66 317.462 282.68 318.54 277.505C321.686 264.201 322.106 250.446 322.483 236.801C322.588 233.153 324.224 222.312 321.067 219.639C318.854 217.78 318.204 220.433 316.61 221.819C314.536 223.388 312.163 224.555 309.624 225.256V225.256Z" fill="#F2F2F2"/>
<path d="M268.124 177.906C266.195 176.456 263.338 176.906 261.211 178.136C259.083 179.366 257.363 181.067 255.204 182.187C249.219 185.298 241.179 183.017 235.496 186.638C230.157 190.049 229.24 197.071 228.823 203.212C227.78 218.816 226.883 234.529 222.973 249.713C221.93 253.714 220.679 257.815 221.075 261.936C221.387 264.29 221.968 266.604 222.806 268.837L227.936 284.211C230.314 291.353 232.723 298.604 232.973 306.096C233.223 313.588 231.388 320.709 229.563 327.861C225.957 341.95 223.609 356.309 222.545 370.781C222.222 375.572 222.087 380.573 224.109 384.964C226.195 389.555 230.429 392.966 234.892 395.557C239.355 398.148 244.203 400.148 248.572 402.899C257.342 408.43 264.381 417.142 274.641 419.412C279.344 420.413 284.266 420.013 289 419.132C289 419.132 286.32 302.385 278.864 285.711C271.409 269.037 264.798 196.811 264.798 194.43C264.798 192.049 268.124 177.906 268.124 177.906Z" fill="#6C63FF"/>
<path d="M308.77 182C308.77 182 348.209 182 354.049 201.82C359.888 221.64 337.38 254.148 337.38 254.148C337.38 254.148 346.549 318.364 350.709 324.707C354.868 331.051 353.219 343.689 353.219 343.689C356.239 352.387 356.811 361.687 354.878 370.662C351.549 384.927 339.04 410.302 339.04 410.302C339.04 410.302 322.371 410.302 318.201 419.812C314.032 429.323 313.202 378.584 313.202 378.584C313.202 378.584 298.203 285.826 299.033 280.282C299.863 274.737 304.033 228.743 305.703 216.056C307.373 203.369 311.007 186.755 308.77 182Z" fill="#6C63FF"/>
<path d="M338.895 194C338.895 194 358 199.56 358 205.922C358 212.284 363.849 246.468 363.849 257.599C363.849 268.73 361.358 270.323 363.849 274.3C366.339 278.278 337.284 276.685 337.284 276.685L332 231.37L338.895 194Z" fill="#6C63FF"/>
<path d="M226.324 251.485C226.324 251.485 263.785 253.824 270.444 249.137C277.104 244.449 305.398 255.377 307.894 261.618C310.39 267.858 267.938 268.634 261.289 268.634C254.64 268.634 223 278 223 278L226.324 251.485Z" fill="#A0616A"/>
<path d="M149.023 621.457C149.023 621.457 131.53 663.351 140.618 668.338C149.706 673.326 245.537 669.775 245.537 669.775C245.537 669.775 261.497 660.398 243.257 653.895C243.257 653.895 228.043 653.177 218.167 647.401C208.291 641.626 196.87 630.803 196.87 630.803C196.87 630.803 196.114 614.923 190.03 618.534C188.211 619.672 186.662 621.159 185.484 622.899C184.306 624.639 183.525 626.594 183.191 628.639L149.023 621.457Z" fill="#3F3D56"/>
<path opacity="0.1" d="M149.023 621.457C149.023 621.457 131.53 663.351 140.618 668.338C149.706 673.326 245.537 669.775 245.537 669.775C245.537 669.775 261.497 660.398 243.257 653.895C243.257 653.895 228.043 653.177 218.167 647.401C208.291 641.626 196.87 630.803 196.87 630.803C196.87 630.803 196.114 614.923 190.03 618.534C188.211 619.672 186.662 621.159 185.484 622.899C184.306 624.639 183.525 626.594 183.191 628.639L149.023 621.457Z" fill="black"/>
<path d="M122.961 633.83C122.961 633.83 103.947 680.351 113.865 685.994C123.784 691.638 227.967 687.603 227.967 687.603C227.967 687.603 245.334 677.176 225.487 669.945C225.487 669.945 208.953 669.146 198.202 662.724C187.45 656.302 175.052 644.237 175.052 644.237C175.052 644.237 174.229 626.579 167.613 630.594C165.634 631.858 163.949 633.511 162.668 635.447C161.386 637.382 160.537 639.556 160.175 641.83L122.961 633.83Z" fill="#3F3D56"/>
<path d="M220 341.795L208.397 441.717C208.397 441.717 204.219 489.301 191.822 499.603C191.822 499.603 191.822 514.671 187.645 519.427L181.838 582.079C181.838 582.079 190.131 605.061 189.306 609.058C188.48 613.055 192.616 625.705 191.791 627.294C190.966 628.883 152 627.294 152 627.294L160.292 499.623L185.984 322L220 341.795Z" fill="#3C354C"/>
<path opacity="0.1" d="M220 341.795L208.397 441.717C208.397 441.717 204.219 489.301 191.822 499.603C191.822 499.603 191.822 514.671 187.645 519.427L181.838 582.079C181.838 582.079 190.131 605.061 189.306 609.058C188.48 613.055 192.616 625.705 191.791 627.294C190.966 628.883 152 627.294 152 627.294L160.292 499.623L185.984 322L220 341.795Z" fill="black"/>
<path d="M200 338.693C200 338.693 190.811 420.525 186.633 438.004C184.006 449.515 182.331 461.204 181.623 472.964C181.623 472.964 180.791 498.392 173.266 505.54C171.07 507.609 169.345 510.085 168.197 512.815C167.049 515.544 166.503 518.469 166.593 521.408C166.593 521.408 159.067 601.648 163.246 611.189C167.424 620.729 171.603 628.668 167.456 635.015C163.309 641.362 117.335 641.372 117.335 636.607C117.335 631.842 117.335 627.867 114.83 625.485C112.325 623.102 114.83 608.005 114.83 608.005C114.83 608.005 104.81 537.296 113.999 516.643C123.187 495.989 127.366 439.556 127.366 439.556C127.366 439.556 120.682 375.204 112.325 364.873C103.968 354.541 113.999 318 113.999 318L200 338.693Z" fill="#3C354C"/>
<path d="M176 84.7677C176.974 86.8621 179.315 88.029 181.444 89.1361C193.783 95.5391 204.11 104.824 214.278 114C211.74 105.893 212.283 97.2061 215.814 89.4353C217.021 86.7923 218.621 83.9399 217.752 81.1773C217.106 79.1826 215.274 77.6666 213.515 76.37C209.364 73.3465 205.024 70.559 200.52 68.0222C197.342 66.2469 190.902 61.5295 187.291 62.0381C187.1 66.6359 187.005 70.745 184.865 75.0037C184.336 76.0609 176.371 85.5656 176 84.7677Z" fill="#A0616A"/>
<path d="M219 95C237.778 95 253 80.4493 253 62.5C253 44.5507 237.778 30 219 30C200.222 30 185 44.5507 185 62.5C185 80.4493 200.222 95 219 95Z" fill="#A0616A"/>
<path d="M220.229 139.899C220.229 139.899 226.041 112.139 209.421 102.626C192.801 93.1131 173.689 82.0112 173.689 82.0112C173.689 82.0112 167.866 81.2118 165.374 93.1131C165.374 93.1131 118.007 101.837 113.012 144.656C108.016 187.474 116.342 250.129 116.342 250.129C116.342 250.129 108.865 304.849 99.722 334.187C99.722 334.187 92.2342 340.533 125.484 331.02C158.734 321.507 216.898 358 216.898 358C216.898 358 222.721 352.444 222.721 348.477C222.721 344.51 229.371 321.497 229.371 321.497C229.371 321.497 235.183 223.958 237.676 212.856C240.168 201.754 227.706 141.488 220.229 139.899Z" fill="#3F3D56"/>
<path d="M169.286 194C169.286 194 214.922 168.674 205.793 136.23C196.663 103.785 176.753 93.5055 176.753 93.5055C176.753 93.5055 144.388 83.2158 117 116.438L118.663 131.474C118.663 131.474 148.539 73.7137 180.904 110.107C213.27 146.5 169.286 194 169.286 194Z" fill="#6C63FF"/>
<path d="M120 118.382V248.117L111.531 292.373L107.573 313H78.6032L38 298.753V203.044C38 203.044 71.9717 138.949 82.7491 127.085C93.5265 115.221 120 118.382 120 118.382Z" fill="#6C63FF"/>
<path opacity="0.1" d="M112 293L108.029 313H78.845L38 299.196L112 293Z" fill="black"/>
<path d="M110 265.245L181 182L118.25 268.422L111.644 270L110 265.245Z" fill="#6C63FF"/>
<path d="M210.451 65.5806C212.397 64.3371 214.837 64.1083 217.173 63.8895C219.508 63.6706 221.949 63.3722 223.81 62.0193C227.04 59.6716 227.282 55.1355 229.649 52.002C233.068 47.4559 239.895 46.9088 245.796 47.1276C249.405 47.2669 253.286 47.4758 256.316 45.6355C259.346 43.7951 260.839 40.1642 261.891 36.8119C263.143 32.8328 263.943 27.9783 260.839 25.0338C258.736 22.9846 255.327 22.5767 252.95 20.7762C250.572 18.9757 249.468 15.8819 248.132 13.1861C246.607 9.89291 244.194 7.03567 241.136 4.89969C236.655 1.91538 230.932 1.29862 225.473 1.34836C220.013 1.3981 214.532 2.08449 209.115 1.44784C204.675 0.930558 200.247 -0.462113 195.828 0.154643C190.19 0.940511 185.53 4.96932 182.742 9.67458C179.954 14.3798 178.776 19.7516 177.619 25.0238L174.463 39.3784C173.495 43.8349 172.517 48.4009 173.264 52.8873C174.821 62.1984 183.531 69.5994 184.131 79C184.703 76.4029 185.949 73.9809 187.756 71.9512C189.562 69.9216 191.873 68.3478 194.482 67.3712C195.135 67.0697 195.875 66.9822 196.586 67.1225C197.448 67.391 197.953 68.2068 198.5 68.8931C199.931 70.6937 204.423 73.4194 206.916 72.146C209.293 71.0021 207.589 67.4209 210.451 65.5806Z" fill="#3F3D56"/>
<path d="M427.22 470.187C427.22 470.187 404.792 470.974 401.474 495.501C398.157 520.027 401.474 633.964 401.474 633.964C401.474 633.964 427.22 652.159 458.783 649.787C490.347 647.414 541 638.71 541 638.71V505.112C541 485.172 523.544 468.911 502.634 470.057C502.142 470.057 501.587 470.117 501.137 470.167L427.22 470.187Z" fill="#3C354C"/>
<path d="M460 668C468.284 668 475 661.732 475 654C475 646.268 468.284 640 460 640C451.716 640 445 646.268 445 654C445 661.732 451.716 668 460 668Z" fill="#3F3D56"/>
<path d="M541 662C549.284 662 556 655.508 556 647.5C556 639.492 549.284 633 541 633C532.716 633 526 639.492 526 647.5C526 655.508 532.716 662 541 662Z" fill="#3F3D56"/>
<path d="M124.618 214.152C124.618 214.152 118.8 248.958 142.875 245.797C142.875 245.797 155.336 244.212 156.999 245.797C158.663 247.382 220.099 237.093 228.406 228.389C228.406 228.389 238.366 225.228 243.347 229.974C248.327 234.72 298.149 239.466 283.219 225.219C268.289 210.971 245.031 207.811 245.031 207.811L213.476 209.386C213.476 209.386 196.872 214.142 186.912 209.386C176.951 204.63 148.692 206.275 148.692 206.275L124.618 214.152Z" fill="#A0616A"/>
<path d="M159.242 104C159.242 104 122 107.987 122 159.362V225C122 225 142.691 216.299 146.832 217.087C150.972 217.874 167.523 206.802 167.523 206.802C167.523 206.802 186.556 164.106 184.898 152.247C183.239 140.387 184.074 105.575 159.242 104Z" fill="#3F3D56"/>
<path d="M329.611 232L292 256.687L315.403 259L348 233.545L329.611 232Z" fill="#3F3D56"/>
<path d="M358.793 269.759C358.793 269.759 367.861 296.889 355.5 304.848C343.139 312.806 322.52 276.933 322.52 276.933C322.52 276.933 300.26 251.42 315.103 245.834C329.947 240.247 336.003 264.574 336.003 264.574L355.469 280.923L358.793 269.759Z" fill="#FBBEBE"/>
<path d="M302 155C320.225 155 335 146.046 335 135C335 123.954 320.225 115 302 115C283.775 115 269 123.954 269 135C269 146.046 283.775 155 302 155Z" fill="#3F3D56"/>
<path d="M308 109C321.255 109 332 98.7025 332 86C332 73.2975 321.255 63 308 63C294.745 63 284 73.2975 284 86C284 98.7025 294.745 109 308 109Z" fill="#3F3D56"/>
<path d="M219 58C236.673 58 251 50.8366 251 42C251 33.1634 236.673 26 219 26C201.327 26 187 33.1634 187 42C187 50.8366 201.327 58 219 58Z" fill="#3F3D56"/>
<path d="M189 72C195.075 72 200 60.1355 200 45.5C200 30.8645 195.075 19 189 19C182.925 19 178 30.8645 178 45.5C178 60.1355 182.925 72 189 72Z" fill="#3F3D56"/>
<path d="M22.4057 673C25.5473 667.459 21.9868 660.671 17.9237 655.724C13.8606 650.776 8.89691 645.668 9.00163 639.342C9.15871 630.292 19.1594 624.952 27.1495 620.155C33.0798 616.596 38.5495 612.373 43.4438 607.575C45.4977 605.733 47.1928 603.554 48.4494 601.14C50.104 597.6 50.0621 593.577 49.9574 589.696C49.6083 576.784 48.9416 563.885 47.9572 551" stroke="#3F3D56" stroke-width="4" stroke-miterlimit="10"/>
<path d="M62.9852 550.368C62.8751 548.017 62.1531 545.731 60.8859 543.721C59.6187 541.711 57.8472 540.042 55.7352 538.868L52.483 545.088L52.5866 537.568C49.6387 536.731 46.4919 536.821 43.6002 537.824C40.7085 538.826 38.2213 540.689 36.4974 543.145C34.7735 545.601 33.9021 548.521 34.0087 551.486C34.1154 554.451 35.1947 557.306 37.091 559.64C38.9872 561.975 41.6024 563.667 44.5592 564.473C47.516 565.279 50.6616 565.158 53.5423 564.126C56.423 563.095 58.8899 561.206 60.5871 558.733C62.2842 556.26 63.124 553.331 62.9852 550.368V550.368Z" fill="#57B894"/>
<path d="M36.3844 645.419C34.8597 648.273 32.3657 650.533 29.3203 651.822C26.2748 653.111 22.8631 653.35 19.6568 652.499C16.4505 651.649 13.6445 649.759 11.7091 647.149C9.77366 644.538 8.82646 641.364 9.02619 638.159C9.22593 634.954 10.5605 631.913 12.8062 629.545C15.0519 627.177 18.0722 625.627 21.3611 625.153C24.6499 624.68 28.0073 625.312 30.8707 626.944C33.7341 628.577 35.9293 631.11 37.0886 634.119L28.0059 641.249L38 639.009C38.0024 641.24 37.4482 643.439 36.3844 645.419V645.419Z" fill="#57B894"/>
<path d="M29.2038 618.983C27.2968 619.076 25.3902 618.792 23.5936 618.147C21.7969 617.503 20.1456 616.51 18.7345 615.227C17.3234 613.943 16.1803 612.394 15.3709 610.669C14.5615 608.943 14.1018 607.075 14.0182 605.171C13.9035 602.903 14.333 600.64 15.2707 598.571C16.1405 596.633 17.4255 594.909 19.0351 593.52C20.6447 592.132 22.5399 591.112 24.587 590.534L24.5146 596.515L27.796 590.017C29.703 589.924 31.6095 590.208 33.4062 590.853C35.2029 591.497 36.8542 592.49 38.2653 593.773C39.6764 595.057 40.8195 596.606 41.6289 598.331C42.4383 600.057 42.898 601.925 42.9816 603.829C43.0666 605.502 42.8564 607.176 42.3605 608.777C41.4863 611.622 39.7538 614.129 37.3992 615.956C35.0446 617.782 32.1826 618.839 29.2038 618.983V618.983Z" fill="#57B894"/>
<path d="M65.0588 595.991C62.8236 596.07 60.5997 595.65 58.5603 594.765C56.5209 593.88 54.7213 592.552 53.3015 590.887C51.8817 589.221 50.8803 587.262 50.3752 585.161C49.8701 583.061 49.875 580.877 50.3896 578.779C50.9041 576.681 51.9144 574.726 53.3417 573.066C54.7689 571.407 56.5746 570.087 58.6179 569.21C60.6613 568.333 62.8871 567.923 65.1219 568.012C67.3566 568.1 69.54 568.685 71.5018 569.721L68.9288 576.521L74.2201 571.621C76.3593 573.486 77.8737 575.923 78.5702 578.622C79.2668 581.32 79.1139 584.157 78.1312 586.771C77.1484 589.385 75.3803 591.658 73.0521 593.3C70.724 594.942 67.9413 595.879 65.0588 595.991V595.991Z" fill="#57B894"/>
<path opacity="0.1" d="M61.3306 554.391C57.9393 554.749 54.6215 555.755 51.2092 555.954C47.7969 556.154 44.0486 555.377 41.8963 552.857C40.7308 551.503 40.1429 549.79 39.1664 548.316C38.2351 546.94 36.9626 545.802 35.4601 545C34.5633 546.763 34.068 548.686 34.0065 550.643C33.9451 552.6 34.3188 554.547 35.1035 556.358C35.8881 558.169 37.0661 559.802 38.5606 561.153C40.0551 562.503 41.8327 563.54 43.7777 564.195C45.7227 564.851 47.7914 565.11 49.8492 564.957C51.9069 564.804 53.9076 564.242 55.721 563.306C57.5343 562.371 59.1197 561.084 60.3738 559.529C61.628 557.974 62.5228 556.186 63 554.281C62.4435 554.301 61.887 554.341 61.3306 554.391Z" fill="black"/>
<path opacity="0.1" d="M65.3875 595.987C62.8551 596.092 60.337 595.573 58.0762 594.481C55.8155 593.388 53.8884 591.759 52.4811 589.75C51.0739 587.741 50.2339 585.42 50.0422 583.012C49.8506 580.603 50.3138 578.188 51.3871 576C52.5609 576.749 53.5692 577.71 54.3549 578.828C55.4037 580.337 56.0329 582.076 57.2704 583.465C59.5566 586.033 63.4789 586.873 67.0236 586.713C70.5683 586.553 74.0081 585.604 77.5108 585.294C78.0037 585.294 78.5071 585.214 79 585.204C78.271 588.168 76.5475 590.824 74.0909 592.77C71.6343 594.716 68.5786 595.845 65.3875 595.987V595.987Z" fill="black"/>
<path opacity="0.1" d="M29.5239 618.983C27.5768 619.074 25.6301 618.796 23.7956 618.165C21.9611 617.534 20.275 616.563 18.8342 615.306C17.3933 614.05 16.2262 612.533 15.3998 610.844C14.5734 609.155 14.1039 607.326 14.0185 605.462C13.9015 603.241 14.34 601.026 15.2975 599C16.5305 599.766 17.6054 600.743 18.4683 601.882C19.6204 603.44 20.3391 605.23 21.6391 606.666C24.1441 609.335 28.3507 610.276 32.1452 610.185C35.9396 610.094 39.3535 609.244 43 608.981C42.1068 611.775 40.3321 614.236 37.9194 616.027C35.5068 617.817 32.5742 618.85 29.5239 618.983V618.983Z" fill="black"/>
<path opacity="0.1" d="M37 645.602C36.2146 647.304 35.0913 648.839 33.6942 650.12C32.2971 651.401 30.6537 652.402 28.8576 653.067C27.0615 653.732 25.148 654.047 23.2264 653.994C21.3048 653.942 19.4126 653.523 17.658 652.761C15.9034 651.999 14.3206 650.91 13.0001 649.554C11.6796 648.199 10.6472 646.605 9.96188 644.863C9.27653 643.121 8.95166 641.265 9.00581 639.401C9.05995 637.537 9.49207 635.702 10.2775 634C11.4831 634.769 12.5669 635.705 13.495 636.776C14.8844 638.428 15.8037 640.292 17.4125 641.843C20.4107 644.7 25.2475 645.896 29.562 645.987C32.0469 645.997 34.5303 645.868 37 645.602V645.602Z" fill="black"/>
<path d="M0 666.009C0 666.009 11.556 665.668 15.0395 663.28C18.523 660.892 32.7699 658.042 33.6773 661.875C34.5846 665.708 51.0322 680.938 37.9951 680.999C24.9581 681.059 7.68662 679.042 4.21355 676.985C0.740481 674.929 0 666.009 0 666.009Z" fill="#656380"/>
<path opacity="0.2" d="M38.2679 679.648C25.2056 679.748 7.92503 677.698 4.44803 675.649C1.79591 674.109 0.741337 668.56 0.386328 666H0C0 666 0.730901 674.929 4.17658 676.998C7.62225 679.068 24.9341 681.078 37.9964 680.998C41.7657 680.998 43.0605 679.688 42.9978 677.778C42.5071 678.908 41.0766 679.628 38.2679 679.648Z" fill="black"/>
</svg>
